<svg width="41" height="42" viewBox="0 0 41 42" fill="none" xmlns="http://www.w3.org/2000/svg">
<g clip-path="url(#clip0_2832_11)">
<path d="M40.9783 21.3929C40.9783 19.6722 40.8389 18.4165 40.537 17.1144H20.9084V24.8809H32.4299C32.1977 26.8109 30.9434 29.7176 28.1558 31.6707L28.1167 31.9308L34.3229 36.7436L34.7529 36.7866C38.7018 33.1358 40.9783 27.7643 40.9783 21.3929Z" fill="#4285F4"/>
<path d="M20.9084 41.8557C26.553 41.8557 31.2917 39.9953 34.7529 36.7865L28.1558 31.6707C26.3904 32.9031 24.021 33.7635 20.9084 33.7635C15.3798 33.7635 10.6876 30.1128 9.01493 25.0669L8.76976 25.0877L2.31645 30.0872L2.23206 30.322C5.66994 37.1584 12.7316 41.8557 20.9084 41.8557Z" fill="#34A853"/>
<path d="M9.01493 25.0669C8.57358 23.7647 8.31816 22.3694 8.31816 20.9278C8.31816 19.486 8.57359 18.0909 8.99171 16.7887L8.98002 16.5114L2.44584 11.4316L2.23205 11.5334C0.815135 14.3704 0.00210571 17.5561 0.00210571 20.9278C0.00210571 24.2995 0.815135 27.4851 2.23205 30.322L9.01493 25.0669Z" fill="#FBBC05"/>
<path d="M20.9084 8.09205C24.834 8.09205 27.4821 9.78953 28.992 11.2081L34.8922 5.44124C31.2686 2.06954 26.553 0 20.9084 0C12.7316 0 5.66994 4.69711 2.23206 11.5335L8.99171 16.7888C10.6876 11.7428 15.3798 8.09205 20.9084 8.09205Z" fill="#EB4335"/>
</g>
<defs>
<clipPath id="clip0_2832_11">
<rect width="41" height="42" fill="white"/>
</clipPath>
</defs>
</svg>
